HIERARCHY
ROOT Hips
{
	OFFSET 0.000000 0.000000 0.000000
	CHANNELS 6 Xposition Yposition Zposition Xrotation Yrotation Zrotation
	JOINT LeftUpLeg_virtual
	{
		OFFSET 0.000000 0.000000 0.000000
		CHANNELS 3 Xrotation Yrotation Zrotation
		JOINT LeftUpLeg
		{
			OFFSET 11.394100 -6.187798 -0.413800
			CHANNELS 3 Xrotation Yrotation Zrotation
			JOINT LeftLeg
			{
				OFFSET 0.430247 -32.302673 3.732800
				CHANNELS 3 Xrotation Yrotation Zrotation
				JOINT LeftFoot
				{
					OFFSET -0.430247 -48.264931 -6.423300
					CHANNELS 3 Xrotation Yrotation Zrotation
					JOINT LeftToeBase
					{
						OFFSET 4.230900 -16.068199 23.438400
						CHANNELS 3 Xrotation Yrotation Zrotation
						JOINT LeftToe_End
						{
							OFFSET 4.510700 0.695400 19.974600
							CHANNELS 3 Xrotation Yrotation Zrotation
							End Site
							{
								OFFSET 0 0 0
							}
						}
					}
				}
			}
		}
	}
	JOINT RightUpLeg_virtual
	{
		OFFSET 0.000000 0.000000 0.000000
		CHANNELS 3 Xrotation Yrotation Zrotation
		JOINT RightUpLeg
		{
			OFFSET -11.333700 -6.187798 -0.413800
			CHANNELS 3 Xrotation Yrotation Zrotation
			JOINT RightLeg
			{
				OFFSET -0.430392 -32.302628 3.733000
				CHANNELS 3 Xrotation Yrotation Zrotation
				JOINT RightFoot
				{
					OFFSET 0.430392 -48.264973 -6.423500
					CHANNELS 3 Xrotation Yrotation Zrotation
					JOINT RightToeBase
					{
						OFFSET -4.230900 -16.068199 23.438400
						CHANNELS 3 Xrotation Yrotation Zrotation
						JOINT RightToe_End
						{
							OFFSET -4.510700 0.695400 19.974600
							CHANNELS 3 Xrotation Yrotation Zrotation
							End Site
							{
								OFFSET 0 0 0
							}
						}
					}
				}
			}
		}
	}
	JOINT Spine_virtual
	{
		OFFSET 0.000000 0.000000 0.000000
		CHANNELS 3 Xrotation Yrotation Zrotation
		JOINT Spine
		{
			OFFSET -0.002400 12.777504 0.315300
			CHANNELS 3 Xrotation Yrotation Zrotation
			JOINT Spine1
			{
				OFFSET -0.002067 5.816869 0.032633
				CHANNELS 3 Xrotation Yrotation Zrotation
				JOINT Spine1_split
				{
					OFFSET -0.002067 5.816869 0.032633
					CHANNELS 3 Xrotation Yrotation Zrotation
					JOINT Spine2
					{
						OFFSET -0.002067 5.816869 0.032633
						CHANNELS 3 Xrotation Yrotation Zrotation
						JOINT Neck_virtual
						{
							OFFSET 0.000000 0.000000 0.000000
							CHANNELS 3 Xrotation Yrotation Zrotation
							JOINT Neck
							{
								OFFSET -0.003700 21.199493 -0.826900
								CHANNELS 3 Xrotation Yrotation Zrotation
								JOINT Head
								{
									OFFSET 0.000000 20.442200 4.834800
									CHANNELS 3 Xrotation Yrotation Zrotation
									JOINT HeadTop_End
									{
										OFFSET 0.000000 34.668396 4.968400
										CHANNELS 3 Xrotation Yrotation Zrotation
										End Site
										{
											OFFSET 0 0 0
										}
									}
								}
							}
						}
						JOINT LeftShoulder_virtual
						{
							OFFSET 0.000000 0.000000 0.000000
							CHANNELS 3 Xrotation Yrotation Zrotation
							JOINT LeftShoulder
							{
								OFFSET 3.288150 8.794197 -1.372250
								CHANNELS 3 Xrotation Yrotation Zrotation
								JOINT LeftShoulder_split
								{
									OFFSET 3.288150 8.794197 -1.372250
									CHANNELS 3 Xrotation Yrotation Zrotation
									JOINT LeftArm
									{
										OFFSET 11.953299 -2.279007 -0.146200
										CHANNELS 3 Xrotation Yrotation Zrotation
										JOINT LeftForeArm
										{
											OFFSET 18.448900 0.000000 0.000000
											CHANNELS 3 Xrotation Yrotation Zrotation
											JOINT LeftHand
											{
												OFFSET 29.527798 0.000000 0.000000
												CHANNELS 3 Xrotation Yrotation Zrotation
												End Site
												{
													OFFSET 0 0 0
												}
											}
										}
									}
								}
							}
						}
						JOINT RightShoulder_virtual
						{
							OFFSET 0.000000 0.000000 0.000000
							CHANNELS 3 Xrotation Yrotation Zrotation
							JOINT RightShoulder
							{
								OFFSET -3.249400 8.794197 -1.372250
								CHANNELS 3 Xrotation Yrotation Zrotation
								JOINT RightShoulder_split
								{
									OFFSET -3.249400 8.794197 -1.372250
									CHANNELS 3 Xrotation Yrotation Zrotation
									JOINT RightArm
									{
										OFFSET -11.953299 -2.279007 -0.146200
										CHANNELS 3 Xrotation Yrotation Zrotation
										JOINT RightForeArm
										{
											OFFSET -18.448900 0.000000 0.000000
											CHANNELS 3 Xrotation Yrotation Zrotation
											JOINT RightHand
											{
												OFFSET -29.527802 0.000000 0.000000
												CHANNELS 3 Xrotation Yrotation Zrotation
												End Site
												{
													OFFSET 0 0 0
												}
											}
										}
									}
								}
							}
						}
					}
				}
			}
		}
	}
}
MOTION
Frames: 7
Frame Time: 0.03333333
-2.864024 101.302353 -0.706329 0.000000 0.000000 0.000000 -6.183759 -16.344713 -0.914774 -0.449486 21.322992 5.979265 10.282533 6.354825 1.367385 -9.554256 -1.184733 -2.680365 2.594192 0.648882 -1.744725 0.000000 0.000000 0.000000 -6.108481 -13.910977 -0.682289 -16.441415 -6.868252 -10.521894 17.463472 -12.153301 -2.072249 7.782650 -2.681532 5.369246 -3.985799 -0.353825 -0.007876 0.000000 0.000000 0.000000 -6.002256 -16.843959 -1.268364 10.037831 2.170345 -0.066202 -4.509966 1.402348 -1.030514 0.921770 0.417973 0.212185 0.000000 0.000000 0.000000 -5.658146 3.779027 -1.300179 5.138026 3.491898 1.392945 1.378352 -6.621194 4.770580 0.000000 0.000000 0.000000 -6.204279 3.854624 -1.594009 2.360772 -12.513236 -2.586479 -2.360435 -2.348873 -0.089150 15.138602 6.277796 -75.016644 3.570006 -9.855137 0.867598 0.000000 0.000000 0.000000 -5.032074 3.888115 -1.541346 1.125087 3.011927 4.528869 -2.907305 -0.897606 -1.461704 0.470078 7.326303 80.060499 2.342011 19.873468 1.703241 0.000000 0.000000 0.000000 
-2.782652 101.238754 -0.737682 0.000000 0.000000 0.000000 -6.243379 -16.757775 -0.877893 -0.834481 21.174124 6.051129 10.971215 6.354313 1.438192 -9.668526 -1.212329 -2.744882 2.669856 0.629248 -1.822172 0.000000 0.000000 0.000000 -6.143354 -14.264747 -0.664952 -16.525720 -7.014649 -10.451911 17.262263 -12.220749 -2.167597 8.016903 -2.739261 5.538257 -4.394052 -0.324078 0.015449 0.000000 0.000000 0.000000 -6.117749 -16.948322 -1.277623 9.956577 2.141710 -0.067249 -4.551729 1.384100 -1.072781 0.801338 0.512516 0.181423 0.000000 0.000000 0.000000 -5.796159 3.762910 -1.335824 5.187562 3.494051 1.447927 1.402828 -6.643304 4.764675 0.000000 0.000000 0.000000 -6.220170 3.843263 -1.646658 2.340295 -12.445053 -2.720915 -2.340632 -2.257165 -0.052242 15.102646 6.693919 -74.737562 3.387262 -9.765120 0.681767 0.000000 0.000000 0.000000 -5.027264 3.889481 -1.600484 1.088517 3.109842 4.693251 -2.799578 -0.859508 -1.437326 0.543925 7.387912 80.198968 2.413121 20.458087 1.708172 0.000000 0.000000 0.000000 
-2.667100 101.083542 -0.847546 0.000000 0.000000 0.000000 -6.195450 -17.110235 -0.915842 -1.817536 20.888279 6.441854 12.633205 6.159943 1.525908 -9.892983 -1.489984 -2.700390 2.604093 0.596811 -1.943511 0.000000 0.000000 0.000000 -6.225560 -14.481270 -0.749076 -16.529568 -7.573766 -10.350374 17.174509 -12.130518 -2.245172 7.590354 -2.689400 5.832769 -4.135557 -0.214963 0.075827 0.000000 0.000000 0.000000 -6.110557 -17.089383 -1.332163 9.850900 2.093840 -0.022819 -4.588407 1.355892 -1.136386 0.762966 0.521876 0.162680 0.000000 0.000000 0.000000 -5.936021 3.737123 -1.399742 5.244142 3.494377 1.421495 1.382708 -6.740244 4.931556 0.000000 0.000000 0.000000 -6.220652 3.816501 -1.704653 2.288951 -12.340684 -2.942663 -2.331608 -2.292212 -0.071129 15.117335 7.083818 -74.079706 3.440769 -9.558437 0.562898 0.000000 0.000000 0.000000 -5.016029 3.876903 -1.665930 1.024893 3.132014 4.987834 -2.838374 -0.891248 -1.454543 0.616208 7.992556 80.043929 2.667044 21.066936 1.767256 0.000000 0.000000 0.000000 
-2.508092 100.855415 -1.087368 0.000000 0.000000 0.000000 -6.066355 -17.285986 -0.980302 -3.227404 20.600778 7.010380 14.859975 5.882287 1.591867 -10.198983 -1.962339 -2.476235 2.440701 0.545638 -2.006517 0.000000 0.000000 0.000000 -6.338468 -14.484545 -0.882294 -16.540994 -8.413300 -10.286865 17.120889 -11.860418 -2.308981 6.697340 -2.540997 6.236189 -3.242516 -0.035518 0.182223 0.000000 0.000000 0.000000 -5.973776 -17.239194 -1.414191 9.760663 2.033713 0.037346 -4.607127 1.333035 -1.206722 0.818756 0.545985 0.165799 0.000000 0.000000 0.000000 -6.068888 3.711539 -1.473310 5.299371 3.478273 1.334165 1.339256 -6.896095 5.242460 0.000000 0.000000 0.000000 -6.202203 3.784371 -1.755924 2.212370 -12.189137 -3.232164 -2.235819 -2.459790 -0.106304 15.047412 7.289606 -73.203495 3.688881 -9.269827 0.471723 0.000000 0.000000 0.000000 -4.993959 3.861146 -1.723730 0.946888 3.071795 5.382357 -2.981845 -0.913568 -1.503062 0.706163 8.943698 79.576246 3.089090 21.599199 1.891721 0.000000 0.000000 0.000000 
-2.290491 100.599052 -1.453827 0.000000 0.000000 0.000000 -5.869263 -17.325504 -1.023824 -4.711955 20.433903 7.542507 17.140303 5.655109 1.620289 -10.602612 -2.477561 -1.985876 2.269503 0.472238 -1.967738 0.000000 0.000000 0.000000 -6.404297 -14.363809 -0.980203 -16.566323 -9.335598 -10.279049 16.915182 -11.361947 -2.394297 5.652959 -2.293122 6.752077 -2.386415 0.163405 0.345833 0.000000 0.000000 0.000000 -5.751536 -17.422585 -1.487036 9.734454 1.967944 0.046831 -4.615228 1.328671 -1.267791 0.938136 0.643133 0.195801 0.000000 0.000000 0.000000 -6.178174 3.702871 -1.537955 5.309370 3.450830 1.255347 1.274473 -7.027914 5.640322 0.000000 0.000000 0.000000 -6.185836 3.766194 -1.786398 2.126367 -11.990057 -3.531634 -2.089946 -2.699982 -0.013968 14.812705 7.292319 -72.267527 4.026437 -9.011197 0.351627 0.000000 0.000000 0.000000 -4.966688 3.853182 -1.758238 0.860085 2.905774 5.857446 -3.201696 -0.872202 -1.560442 0.823502 9.974363 78.832568 3.645267 21.965641 2.101333 0.000000 0.000000 0.000000 
-2.020174 100.348328 -1.892712 0.000000 0.000000 0.000000 -5.609654 -17.319464 -0.998362 -5.974378 20.545996 7.846010 18.951962 5.571546 1.591481 -11.081686 -2.880227 -1.248919 2.176514 0.393668 -1.868444 0.000000 0.000000 0.000000 -6.353173 -14.282401 -0.995235 -16.733320 -10.168830 -10.369335 16.450266 -10.671565 -2.516327 4.911319 -1.984765 7.260395 -2.025162 0.331476 0.535643 0.000000 0.000000 0.000000 -5.520470 -17.709678 -1.533901 9.821536 1.906176 -0.053188 -4.630095 1.357390 -1.297368 1.008617 0.780454 0.253526 0.000000 0.000000 0.000000 -6.252522 3.718106 -1.566741 5.249965 3.436147 1.244616 1.198898 -7.056448 6.047713 0.000000 0.000000 0.000000 -6.176301 3.772312 -1.780376 2.049635 -11.708105 -3.783329 -1.950449 -2.864629 0.164296 14.342996 7.152718 -71.404505 4.282481 -8.910697 0.126639 0.000000 0.000000 0.000000 -4.937803 3.864213 -1.752027 0.765485 2.654591 6.369667 -3.456359 -0.801982 -1.608739 0.970308 10.793298 77.851698 4.294259 22.090763 2.401279 0.000000 0.000000 0.000000 
-1.735387 100.139526 -2.306297 0.000000 0.000000 0.000000 -5.391389 -17.570790 -0.905079 -6.737016 20.996647 7.865338 19.889186 5.609676 1.554717 -11.506177 -3.083048 -0.439111 2.090186 0.322572 -1.728811 0.000000 0.000000 0.000000 -6.235415 -14.446716 -0.925739 -17.245893 -10.782640 -10.511573 15.841029 -9.907732 -2.614257 4.847465 -1.693684 7.529776 -2.063406 0.400569 0.766455 0.000000 0.000000 0.000000 -5.394033 -18.144066 -1.547207 10.096527 1.846326 -0.322876 -4.667238 1.417093 -1.274583 0.995695 0.882137 0.344568 0.000000 0.000000 0.000000 -6.277940 3.754616 -1.535889 5.098994 3.461906 1.353288 1.104432 -6.930817 6.388336 0.000000 0.000000 0.000000 -6.180923 3.806761 -1.721410 1.981384 -11.324871 -3.958227 -1.818632 -2.972946 0.359374 13.660793 6.973403 -70.694391 4.310519 -8.988911 -0.264137 0.000000 0.000000 0.000000 -4.926669 3.894199 -1.683552 0.659205 2.351604 6.888766 -3.668224 -0.716321 -1.623053 1.102348 11.265693 76.765582 4.985097 21.987772 2.780569 0.000000 0.000000 0.000000 
